<mxfile host="app.diagrams.net" modified="2022-06-13T13:28:23.247Z" agent="5.0 (Macintosh; Intel Mac OS X 10_15_7) AppleWebKit/537.36 (KHTML, like Gecko) Chrome/102.0.5005.115 Safari/537.36" etag="j-eEjgslgb3izX6AtA-e" version="19.0.3" type="github">
  <diagram id="0TcvNVGdfmkhXoJ2Nnpc" name="Page-1">
    <mxGraphModel dx="1666" dy="830" grid="0" gridSize="10" guides="1" tooltips="1" connect="1" arrows="1" fold="1" page="1" pageScale="1" pageWidth="1169" pageHeight="827" math="0" shadow="0">
      <root>
        <mxCell id="0" />
        <mxCell id="1" parent="0" />
        <mxCell id="tLQB-r3QSDBuK20FlxPW-10" value="" style="rounded=0;whiteSpace=wrap;html=1;fillColor=#d5e8d4;strokeColor=#82b366;dashed=1;strokeWidth=2;" parent="1" vertex="1">
          <mxGeometry x="114" y="371" width="468" height="243" as="geometry" />
        </mxCell>
        <mxCell id="tLQB-r3QSDBuK20FlxPW-3" value="Ingress" style="rounded=1;whiteSpace=wrap;html=1;fillColor=#1ba1e2;fontColor=#ffffff;strokeColor=#006EAF;" parent="1" vertex="1">
          <mxGeometry x="156" y="391" width="100" height="50" as="geometry" />
        </mxCell>
        <mxCell id="tLQB-r3QSDBuK20FlxPW-4" value="Traefik&lt;br&gt;revProxy+Let&#39;s" style="rounded=1;whiteSpace=wrap;html=1;fillColor=#f0a30a;fontColor=#000000;strokeColor=#BD7000;" parent="1" vertex="1">
          <mxGeometry x="286" y="391" width="100" height="50" as="geometry" />
        </mxCell>
        <mxCell id="tLQB-r3QSDBuK20FlxPW-6" value="worker" style="ellipse;whiteSpace=wrap;html=1;" parent="1" vertex="1">
          <mxGeometry x="171" y="521" width="70" height="50" as="geometry" />
        </mxCell>
        <mxCell id="tLQB-r3QSDBuK20FlxPW-7" value="worker" style="ellipse;whiteSpace=wrap;html=1;" parent="1" vertex="1">
          <mxGeometry x="256" y="521" width="70" height="50" as="geometry" />
        </mxCell>
        <mxCell id="tLQB-r3QSDBuK20FlxPW-8" value="worker" style="ellipse;whiteSpace=wrap;html=1;" parent="1" vertex="1">
          <mxGeometry x="336" y="521" width="70" height="50" as="geometry" />
        </mxCell>
        <mxCell id="tLQB-r3QSDBuK20FlxPW-9" value="worker" style="ellipse;whiteSpace=wrap;html=1;" parent="1" vertex="1">
          <mxGeometry x="456" y="521" width="70" height="50" as="geometry" />
        </mxCell>
        <mxCell id="tLQB-r3QSDBuK20FlxPW-11" value="Internet" style="ellipse;shape=cloud;whiteSpace=wrap;html=1;fillColor=#f8cecc;gradientColor=#ea6b66;strokeColor=#b85450;" parent="1" vertex="1">
          <mxGeometry x="251" y="191" width="155" height="100" as="geometry" />
        </mxCell>
        <mxCell id="tLQB-r3QSDBuK20FlxPW-12" value="" style="shape=flexArrow;endArrow=classic;startArrow=classic;html=1;rounded=0;" parent="1" edge="1">
          <mxGeometry width="100" height="100" relative="1" as="geometry">
            <mxPoint x="206" y="381" as="sourcePoint" />
            <mxPoint x="306" y="281" as="targetPoint" />
          </mxGeometry>
        </mxCell>
        <mxCell id="tLQB-r3QSDBuK20FlxPW-13" value="" style="shape=flexArrow;endArrow=classic;startArrow=classic;html=1;rounded=0;entryX=0.55;entryY=0.95;entryDx=0;entryDy=0;entryPerimeter=0;" parent="1" target="tLQB-r3QSDBuK20FlxPW-11" edge="1">
          <mxGeometry width="100" height="100" relative="1" as="geometry">
            <mxPoint x="336" y="381" as="sourcePoint" />
            <mxPoint x="436" y="281" as="targetPoint" />
          </mxGeometry>
        </mxCell>
        <mxCell id="tLQB-r3QSDBuK20FlxPW-16" value="" style="shape=flexArrow;endArrow=classic;startArrow=classic;html=1;rounded=0;" parent="1" target="tLQB-r3QSDBuK20FlxPW-11" edge="1">
          <mxGeometry width="100" height="100" relative="1" as="geometry">
            <mxPoint x="456" y="401" as="sourcePoint" />
            <mxPoint x="556" y="301" as="targetPoint" />
            <Array as="points">
              <mxPoint x="436" y="341" />
            </Array>
          </mxGeometry>
        </mxCell>
        <mxCell id="tLQB-r3QSDBuK20FlxPW-17" value="Zero Trust" style="edgeLabel;html=1;align=center;verticalAlign=middle;resizable=0;points=[];" parent="tLQB-r3QSDBuK20FlxPW-16" vertex="1" connectable="0">
          <mxGeometry x="0.2831" y="-1" relative="1" as="geometry">
            <mxPoint as="offset" />
          </mxGeometry>
        </mxCell>
        <mxCell id="tLQB-r3QSDBuK20FlxPW-18" value="" style="shape=flexArrow;endArrow=classic;startArrow=classic;html=1;rounded=0;" parent="1" edge="1">
          <mxGeometry width="100" height="100" relative="1" as="geometry">
            <mxPoint x="400" y="225" as="sourcePoint" />
            <mxPoint x="480" y="182" as="targetPoint" />
          </mxGeometry>
        </mxCell>
        <mxCell id="tLQB-r3QSDBuK20FlxPW-19" value="zero Trust" style="edgeLabel;html=1;align=center;verticalAlign=middle;resizable=0;points=[];" parent="tLQB-r3QSDBuK20FlxPW-18" vertex="1" connectable="0">
          <mxGeometry x="0.14" relative="1" as="geometry">
            <mxPoint as="offset" />
          </mxGeometry>
        </mxCell>
        <mxCell id="tLQB-r3QSDBuK20FlxPW-20" value="Cloudflare" style="shape=hexagon;perimeter=hexagonPerimeter2;whiteSpace=wrap;html=1;fixedSize=1;fillColor=#fad7ac;strokeColor=#b46504;" parent="1" vertex="1">
          <mxGeometry x="483" y="146" width="100" height="45" as="geometry" />
        </mxCell>
        <mxCell id="tLQB-r3QSDBuK20FlxPW-21" value="Swarm Cluster" style="text;html=1;strokeColor=none;fillColor=none;align=center;verticalAlign=middle;whiteSpace=wrap;rounded=0;" parent="1" vertex="1">
          <mxGeometry x="271" y="584" width="130" height="30" as="geometry" />
        </mxCell>
        <mxCell id="tLQB-r3QSDBuK20FlxPW-22" value="User" style="shape=umlActor;verticalLabelPosition=bottom;verticalAlign=top;html=1;outlineConnect=0;fillColor=#fff2cc;strokeColor=#d6b656;" parent="1" vertex="1">
          <mxGeometry x="200" y="46" width="30" height="60" as="geometry" />
        </mxCell>
        <mxCell id="tLQB-r3QSDBuK20FlxPW-23" value="" style="endArrow=classic;startArrow=classic;html=1;rounded=0;" parent="1" target="tLQB-r3QSDBuK20FlxPW-11" edge="1">
          <mxGeometry width="50" height="50" relative="1" as="geometry">
            <mxPoint x="228" y="117" as="sourcePoint" />
            <mxPoint x="446" y="391" as="targetPoint" />
            <Array as="points" />
          </mxGeometry>
        </mxCell>
        <mxCell id="tLQB-r3QSDBuK20FlxPW-24" value="&lt;h1&gt;DNS:&lt;/h1&gt;&lt;div style=&quot;font-size: 17px;&quot;&gt;&lt;font style=&quot;font-size: 17px;&quot;&gt;&lt;b&gt;for Ingress service&lt;/b&gt;&lt;/font&gt;&lt;/div&gt;&lt;div style=&quot;font-size: 17px;&quot;&gt;&lt;font style=&quot;font-size: 17px;&quot;&gt;- swarm.ipv9.me&amp;nbsp;&lt;br&gt;&lt;/font&gt;&lt;/div&gt;&lt;div style=&quot;font-size: 17px;&quot;&gt;&lt;font color=&quot;#0000ff&quot; style=&quot;font-size: 17px;&quot;&gt;- swarm.ipv9.xyz&lt;/font&gt;&lt;/div&gt;&lt;div style=&quot;font-size: 17px;&quot;&gt;&lt;br&gt;&lt;/div&gt;&lt;div style=&quot;font-size: 17px;&quot;&gt;&lt;b&gt;for revProxy+Let&#39;s&lt;/b&gt;&lt;/div&gt;&lt;div style=&quot;font-size: 17px;&quot;&gt;- *.xops.ipv9.me&amp;nbsp;&lt;/div&gt;&lt;span style=&quot;font-size: 17px;&quot;&gt;&lt;font color=&quot;#0000cc&quot;&gt;- *.xops.ipv9.xyz&amp;nbsp;&lt;/font&gt;&lt;br&gt;&lt;/span&gt;" style="text;html=1;strokeColor=none;fillColor=none;spacing=5;spacingTop=-20;whiteSpace=wrap;overflow=hidden;rounded=0;" parent="1" vertex="1">
          <mxGeometry x="615" y="128" width="347" height="213" as="geometry" />
        </mxCell>
        <mxCell id="tLQB-r3QSDBuK20FlxPW-27" value="" style="group" parent="1" vertex="1" connectable="0">
          <mxGeometry x="374" y="457" width="157" height="50" as="geometry" />
        </mxCell>
        <mxCell id="tLQB-r3QSDBuK20FlxPW-5" value="Manager" style="ellipse;whiteSpace=wrap;html=1;fillColor=#fff2cc;strokeColor=#d6b656;" parent="tLQB-r3QSDBuK20FlxPW-27" vertex="1">
          <mxGeometry width="70" height="50" as="geometry" />
        </mxCell>
        <mxCell id="tLQB-r3QSDBuK20FlxPW-25" value="Manager" style="ellipse;whiteSpace=wrap;html=1;fillColor=#fff2cc;strokeColor=#d6b656;" parent="tLQB-r3QSDBuK20FlxPW-27" vertex="1">
          <mxGeometry x="44" width="70" height="50" as="geometry" />
        </mxCell>
        <mxCell id="tLQB-r3QSDBuK20FlxPW-26" value="Manager" style="ellipse;whiteSpace=wrap;html=1;fillColor=#fff2cc;strokeColor=#d6b656;" parent="tLQB-r3QSDBuK20FlxPW-27" vertex="1">
          <mxGeometry x="87" width="70" height="50" as="geometry" />
        </mxCell>
        <mxCell id="tLQB-r3QSDBuK20FlxPW-28" value="by P.Itarun :Jun22" style="text;html=1;strokeColor=none;fillColor=none;align=center;verticalAlign=middle;whiteSpace=wrap;rounded=0;dashed=1;fontSize=17;" parent="1" vertex="1">
          <mxGeometry x="648" y="571" width="160" height="30" as="geometry" />
        </mxCell>
        <mxCell id="yfkS_hRk5FfO1Nmqv_6T-1" value="&lt;div style=&quot;text-align: left; font-size: 20px;&quot;&gt;&lt;span style=&quot;background-color: initial; font-size: 20px;&quot;&gt;Cluster mgmt:&lt;/span&gt;&lt;/div&gt;&lt;div style=&quot;text-align: left; font-size: 20px;&quot;&gt;&lt;span style=&quot;background-color: initial; font-size: 20px;&quot;&gt;&lt;br&gt;&lt;/span&gt;&lt;/div&gt;&lt;div style=&quot;text-align: left; font-size: 20px;&quot;&gt;&lt;span style=&quot;background-color: initial; font-size: 20px;&quot;&gt;https://portainer.ipv9.me&lt;/span&gt;&lt;/div&gt;" style="text;html=1;strokeColor=none;fillColor=none;align=center;verticalAlign=middle;whiteSpace=wrap;rounded=0;fontSize=20;" parent="1" vertex="1">
          <mxGeometry x="582" y="443" width="293" height="93" as="geometry" />
        </mxCell>
        <mxCell id="yfkS_hRk5FfO1Nmqv_6T-2" value="" style="shape=flexArrow;endArrow=classic;html=1;rounded=0;fontSize=20;" parent="1" edge="1">
          <mxGeometry width="50" height="50" relative="1" as="geometry">
            <mxPoint x="920" y="396" as="sourcePoint" />
            <mxPoint x="840" y="457" as="targetPoint" />
          </mxGeometry>
        </mxCell>
        <mxCell id="yfkS_hRk5FfO1Nmqv_6T-3" value="Check it first" style="edgeLabel;html=1;align=center;verticalAlign=middle;resizable=0;points=[];fontSize=20;" parent="yfkS_hRk5FfO1Nmqv_6T-2" vertex="1" connectable="0">
          <mxGeometry x="-0.7782" relative="1" as="geometry">
            <mxPoint as="offset" />
          </mxGeometry>
        </mxCell>
        <mxCell id="k_gkprCdmWqx7DsaNJFG-2" value="Github" style="shape=cylinder3;whiteSpace=wrap;html=1;boundedLbl=1;backgroundOutline=1;size=15;fontColor=#0000CC;" vertex="1" parent="1">
          <mxGeometry x="45" y="254" width="60" height="59" as="geometry" />
        </mxCell>
        <mxCell id="k_gkprCdmWqx7DsaNJFG-3" value="" style="endArrow=classic;startArrow=classic;html=1;rounded=0;" edge="1" parent="1">
          <mxGeometry width="50" height="50" relative="1" as="geometry">
            <mxPoint x="121" y="281" as="sourcePoint" />
            <mxPoint x="243" y="255" as="targetPoint" />
            <Array as="points" />
          </mxGeometry>
        </mxCell>
        <mxCell id="k_gkprCdmWqx7DsaNJFG-4" value="Dev" style="shape=umlActor;verticalLabelPosition=bottom;verticalAlign=top;html=1;outlineConnect=0;fillColor=#d5e8d4;strokeColor=#82b366;" vertex="1" parent="1">
          <mxGeometry x="48" y="121" width="30" height="60" as="geometry" />
        </mxCell>
        <mxCell id="k_gkprCdmWqx7DsaNJFG-5" value="" style="endArrow=classic;startArrow=classic;html=1;rounded=0;" edge="1" parent="1">
          <mxGeometry width="50" height="50" relative="1" as="geometry">
            <mxPoint x="96" y="178" as="sourcePoint" />
            <mxPoint x="247" y="215" as="targetPoint" />
            <Array as="points" />
          </mxGeometry>
        </mxCell>
        <mxCell id="k_gkprCdmWqx7DsaNJFG-9" value="Operate&lt;br&gt;Swarm" style="text;html=1;strokeColor=#3A5431;fillColor=#6d8764;align=center;verticalAlign=middle;whiteSpace=wrap;rounded=0;fontColor=#ffffff;" vertex="1" parent="1">
          <mxGeometry x="75" y="477.5" width="60" height="30" as="geometry" />
        </mxCell>
      </root>
    </mxGraphModel>
  </diagram>
</mxfile>
